<svg width="761" height="771" viewBox="0 0 761 771" fill="none" xmlns="http://www.w3.org/2000/svg">
<path d="M741 0H20C8.95431 0 0 8.95432 0 20V751C0 762.046 8.95433 771 20 771H741C752.046 771 761 762.046 761 751V20C761 8.95431 752.046 0 741 0Z" fill="black"/>
<path d="M550.992 561.023C541.482 561.023 532.585 563.706 524.993 568.536L478.899 541.934L270.443 421.647V547.76L207.093 511.191V312.017L599.617 538.484V233.206L444.387 143.662V269.775L304.956 189.278L258.862 162.675C258.939 162.138 258.939 161.602 258.939 160.989C258.939 133.926 236.928 112 210.008 112C182.935 112 161 134.003 161 160.989C161 187.974 183.011 209.977 210.008 209.977C219.518 209.977 228.415 207.294 236.007 202.464L282.101 229.066L490.557 349.353V223.24L553.83 259.809V458.983L161.23 232.44V537.717L316.537 627.338V501.225L455.968 581.722L502.061 608.325C501.984 608.861 501.984 609.398 501.984 610.011C501.984 637.074 523.996 659 550.992 659C578.065 659 600 636.997 600 610.011C600 582.949 578.065 561.023 550.992 561.023ZM210.008 177.778C200.728 177.778 193.212 170.265 193.212 160.989C193.212 151.712 200.728 144.199 210.008 144.199C219.288 144.199 226.804 151.712 226.804 160.989C226.727 170.265 219.211 177.778 210.008 177.778ZM567.865 609.935C567.865 619.211 560.349 626.724 551.069 626.724C541.789 626.724 534.273 619.211 534.273 609.935C534.273 600.658 541.789 593.145 551.069 593.145C560.272 593.145 567.865 600.735 567.865 609.935Z" fill="#17B26A"/>
</svg>

